HIERARCHY
ROOT hip
{
	OFFSET 0.000000 0.000000 0.000000 
	CHANNELS 6 Xposition Yposition Zposition Xrotation Zrotation Yrotation
	JOINT abdomen
	{
		OFFSET 0.000000 3.402643 0.000000 
		CHANNELS 3 Xrotation Zrotation Yrotation
		JOINT chest
		{
			OFFSET 0.000000 8.438565 -0.680529 
			CHANNELS 3 Xrotation Zrotation Yrotation
			JOINT neck
			{
				OFFSET 0.000000 10.207942 -0.272212 
				CHANNELS 3 Xrotation Zrotation Yrotation
				JOINT head
				{
					OFFSET 0.000000 3.130431 0.000000 
					CHANNELS 3 Xrotation Zrotation Yrotation
					End Site
					{
						OFFSET 0.000000 3.130435 0.000000 
					}
				}
			}
			JOINT lCollar
			{
				OFFSET 3.470700 6.669187 -0.816635 
				CHANNELS 3 Yrotation Zrotation Xrotation
				JOINT lShldr
				{
					OFFSET 3.198488 0.000000 0.000000 
					CHANNELS 3 Zrotation Yrotation Xrotation
					JOINT lForeArm
					{
						OFFSET 10.139888 0.000000 0.000000 
						CHANNELS 3 Yrotation Zrotation Xrotation
						JOINT lHand
						{
							OFFSET 8.370511 0.000000 0.000000 
							CHANNELS 3 Zrotation Yrotation Xrotation
							End Site
							{
								OFFSET 4.083176 0.000000 0.000000 
							}
						}
					}
				}
			}
			JOINT rCollar
			{
				OFFSET -3.470700 6.669187 -0.816635 
				CHANNELS 3 Yrotation Zrotation Xrotation
				JOINT rShldr
				{
					OFFSET -3.198488 0.000000 0.000000 
					CHANNELS 3 Zrotation Yrotation Xrotation
					JOINT rForeArm
					{
						OFFSET -10.139888 0.000000 0.000000 
						CHANNELS 3 Yrotation Zrotation Xrotation
						JOINT rHand
						{
							OFFSET -8.370511 0.000000 0.000000 
							CHANNELS 3 Zrotation Yrotation Xrotation
							End Site
							{
								OFFSET -4.083176 0.000000 0.000000 
							}
						}
					}
				}
			}
		}
	}
	JOINT lThigh
	{
		OFFSET 5.308129 -1.633274 1.361059 
		CHANNELS 3 Xrotation Zrotation Yrotation
		JOINT lShin
		{
			OFFSET -2.041588 -20.007561 0.000000 
			CHANNELS 3 Xrotation Zrotation Yrotation
			JOINT lFoot
			{
				OFFSET 0.000000 -19.190928 -1.224953 
				CHANNELS 3 Xrotation Yrotation Zrotation
				End Site
				{
					OFFSET 0.000000 -2.449906 4.627600 
				}
			}
		}
	}
	JOINT rThigh
	{
		OFFSET -5.308129 -1.633274 1.361059 
		CHANNELS 3 Xrotation Zrotation Yrotation
		JOINT rShin
		{
			OFFSET 2.041588 -20.007561 0.000000 
			CHANNELS 3 Xrotation Zrotation Yrotation
			JOINT rFoot
			{
				OFFSET 0.000000 -19.190928 -1.224953 
				CHANNELS 3 Xrotation Yrotation Zrotation
				End Site
				{
					OFFSET 0.000000 -2.449906 4.627600 
				}
			}
		}
	}
}
MOTION
Frames: 6
Frame Time: 0.016667
-0.030147 47.781548 1.617420 -11.890933 1.855489 -8.275655 35.430904 -4.632133 4.809981 -17.384615 2.474294 6.490530 -9.473907 -4.329678 -3.085079 4.922019 0.935676 -3.574539 -4.298181 -7.635988 -0.009652 -69.684906 23.240829 -4.339620 -30.792959 3.938683 50.036613 -12.069154 17.174421 -3.610125 13.534657 -3.010098 -0.009481 67.211777 4.296862 9.526340 54.279091 -2.820872 33.065708 -11.431077 -1.782333 0.350202 -19.615543 -2.216686 3.682206 34.861572 -0.976430 -2.804963 10.512770 -6.636896 -11.058065 9.861953 -11.161140 -1.969464 68.474159 -1.124811 4.022070 24.840919 10.668762 7.629140 
-0.083425 48.012947 3.205048 -12.271331 2.058533 -8.257113 35.694149 -4.839403 4.380125 -17.498613 2.543801 6.168583 -9.199583 -4.145348 -2.829701 5.098553 0.838475 -3.271705 -4.132169 -7.655546 -0.009653 -70.611717 22.009571 -5.396574 -30.598085 3.940328 50.054867 -11.682386 17.994236 -3.653997 13.192896 -2.795198 -0.009497 68.128136 2.679492 10.077070 53.364906 -2.845492 33.439110 -10.543937 -2.104378 0.381422 -17.773586 -2.967967 3.089550 36.024532 -0.917869 -2.845912 8.267728 -5.675472 -11.446532 8.207508 -11.272981 -1.205932 70.657562 -1.271222 4.039376 23.084541 10.953261 7.857937 
-0.182117 48.387829 4.706897 -12.163427 1.982472 -8.002687 35.576748 -4.735856 3.771906 -17.662333 3.168828 5.526390 -8.492827 -3.990959 -2.291167 4.828362 0.331675 -2.656262 -3.897799 -7.684884 -0.009656 -71.760231 20.743450 -5.267548 -30.569185 3.901672 49.305481 -10.931826 17.836308 -3.384435 13.104984 -2.922136 -0.009499 68.812859 0.685786 10.834851 52.195015 -2.865264 33.622158 -9.601815 -1.282267 0.206951 -15.614361 -3.368584 1.996245 35.604450 -0.933342 -2.829524 6.810953 -4.997048 -11.656025 4.528236 -10.999131 -0.955484 72.956596 -1.427550 4.086989 22.701073 11.476739 7.747753 
-0.280802 48.762680 6.208662 -12.065645 1.906320 -7.738514 35.457088 -4.631629 3.164489 -17.830290 3.794807 4.884312 -7.792253 -3.836082 -1.762366 4.567155 -0.185429 -2.041037 -3.673197 -7.723984 -0.009657 -72.900871 19.471567 -5.106980 -30.538893 3.855988 48.557232 -10.182690 17.674603 -3.119351 13.017070 -3.058841 -0.009501 69.462509 -1.312737 11.574921 51.032627 -2.888614 33.802380 -8.672005 -0.466336 0.051368 -13.440558 -3.729109 0.922526 35.193287 -0.937470 -2.839285 5.372715 -4.323612 -11.850799 0.859027 -10.708043 -0.733137 75.245377 -1.612348 4.115192 22.306770 12.042968 7.591074 
-0.447895 49.194141 7.658216 -11.743639 1.540957 -7.062970 35.233997 -4.185333 2.545828 -18.027185 4.256835 4.074470 -7.275195 -3.143557 -1.428455 4.087267 -0.937173 -1.513948 -3.585276 -7.548218 -0.009662 -73.487732 18.161737 -3.628026 -31.253515 3.824184 48.068821 -10.668242 17.725803 -3.281269 12.743673 -2.814655 -0.009514 69.766472 -3.476293 12.213361 49.928993 -2.924861 34.439697 -7.404022 -1.377676 0.159279 -11.137595 -3.514374 -0.006013 34.119034 -0.986284 -2.780159 4.488256 -4.319214 -11.916711 -2.878409 -9.932243 -0.837858 75.587692 -1.610955 4.109576 22.110806 12.050930 7.616838 
-0.614984 49.625576 9.107713 -11.430291 1.174306 -6.387973 35.001518 -3.747905 1.917627 -18.236883 4.709138 3.273145 -6.760241 -2.450733 -1.085081 3.603141 -1.679439 -0.986763 -3.497355 -7.372452 -0.009667 -74.111809 16.862440 -2.151911 -31.974144 3.796799 47.573494 -11.146908 17.774284 -3.450360 12.470273 -2.580234 -0.009526 70.043488 -5.640115 12.848973 48.833221 -2.966088 35.074696 -6.137351 -2.292535 0.236451 -8.838141 -3.239290 -0.898548 33.054363 -1.035092 -2.720812 3.581939 -4.312668 -11.983497 -6.615936 -9.172247 -1.011147 75.956818 -1.640623 4.139902 21.913084 12.037801 7.660498 
